<?xml version="1.0" standalone="no"?>
<!DOCTYPE svg PUBLIC "-//W3C//DTD SVG 20010904//EN"
 "http://www.w3.org/TR/2001/REC-SVG-20010904/DTD/svg10.dtd">
<svg version="1.0" xmlns="http://www.w3.org/2000/svg"
 width="512.000000pt" height="512.000000pt" viewBox="0 0 512.000000 512.000000"
 preserveAspectRatio="xMidYMid meet">
<metadata>
Created by potrace 1.14, written by Peter Selinger 2001-2017
</metadata>
<g transform="translate(0.000000,512.000000) scale(0.100000,-0.100000)"
fill="#000000" stroke="none">
<path d="M375 5101 c-139 -41 -249 -129 -315 -252 -64 -119 -60 24 -59 -2289
0 -1471 3 -2120 11 -2155 10 -47 52 -147 80 -189 45 -68 173 -164 250 -187 18
-6 42 -13 53 -17 11 -4 978 -8 2150 -9 1753 -2 2139 0 2180 11 56 15 158 61
188 85 101 82 176 201 196 316 15 81 15 4240 0 4305 -38 167 -169 312 -338
374 -56 21 -60 21 -2196 23 -2027 1 -2143 1 -2200 -16z"/>
</g>
</svg>
